# xmcd
#
# Track frame offsets:
# 150
# 11062
# 26530
# 41580
# 65625
#
# Disc length: 1190 seconds
#
# Revision: 1
# Processed by: cddbd v1.5.2PL0 Copyright (c) Steve Scherf et al.
# Submitted via: Easy CD Ripper v2.35
#
DISCID=3b04a405
DTITLE=Bacon Brothers - Heavy shit
DYEAR=1994
DGENRE=Blues
TTITLE0=Backtrack - Bacon Brothers
TTITLE1=Feel so good - Bacon Brothers
TTITLE2=The feelgood factor - Bacon Brothers
TTITLE3=Cut off my right arm - Bacon Brothers
TTITLE4=Relocate your love - Bacon Brothers
EXTD=
EXTT0=
EXTT1=
EXTT2=
EXTT3=
EXTT4=
PLAYORDER=
